{"title":"The 39 Steps(1935)MP-4[DaScubaDude]","uid":12692357,"size":735529667,"categoryP":"video","categoryS":"movies","magnet":"?xt=urn:btih:5afe3046c219525ee4564ed5f1afd22d7ea0c455&amp;dn=The+39+Steps%281935%29MP-4%5BDaScubaDude%5D&amp;tr=udp%3A%2F%2Ftracker.leechers-paradise.org%3A6969&amp;tr=udp%3A%2F%2Fzer0day.ch%3A1337&amp;tr=udp%3A%2F%2Fopen.demonii.com%3A1337&amp;tr=udp%3A%2F%2Ftracker.coppersurfer.tk%3A6969&amp;tr=udp%3A%2F%2Fexodus.desync.com%3A6969","seeders":0,"leechers":0,"uploader":"dascuba","files":1,"time":1446690775,"description":"The 39 Steps (1935)\r\nUnrated  |  86 min  |  Mystery, Thriller  |  1 August 1935 (USA)\r\n7.8 Your rating:   -/10   Ratings: 7.8/10 from 37,977 users   \r\nReviews: 208 user | 96 critic\r\nA man in London tries to help a counterespionage agent. But when the agent is killed and the man stands accused, he must go on the run to both save himself and also stop a spy ring which is trying to steal top secret information.\r\n\r\nDirector: Alfred Hitchcock\r\nWriters: John Buchan (adapted from the novel by), Charles Bennett (adaptation), 1 more credit »\r\nStars: Robert Donat, Madeleine Carroll, Lucie Mannheim\r\nGeneral\r\nComplete name                            : C:39 Steps39STEPS_Title17.mp4\r\nFormat                                   : MPEG-4\r\nFormat profile                           : Base Media\r\nCodec ID                                 : isom\r\nFile size                                : 701 MiB\r\nDuration                                 : 1h 14mn\r\nOverall bit rate mode                    : Variable\r\nOverall bit rate                         : 1 314 Kbps\r\nMovie name                               : 39STEPS\r\nGenre                                    : Thriller\r\nWriting application                      : Lavf54.6.100\r\n\r\nVideo\r\nID                                       : 1\r\nFormat                                   : AVC\r\nFormat/Info                              : Advanced Video Codec\r\nFormat profile                           :   \r\nFormat settings, CABAC                   : No\r\nFormat settings, ReFrames                : 6 frames\r\nCodec ID                                 : avc1\r\nCodec ID/Info                            : Advanced Video Coding\r\nDuration                                 : 1h 14mn\r\nBit rate                                 : 1 195 Kbps\r\nWidth                                    : 720 pixels\r\nHeight                                   : 540 pixels\r\nDisplay aspect ratio                     : 4:3\r\nFrame rate mode                          : Constant\r\nFrame rate                               : 29.970 fps\r\nColor space                              : YUV\r\nChroma subsampling                       : 4:2:0\r\nBit depth                                : 8 bits\r\nScan type                                : Progressive\r\nBits/(Pixel*Frame)                       : 0.103\r\nStream size                              : 638 MiB (91%)\r\n\r\nAudio\r\nID                                       : 2\r\nFormat                                   : AAC\r\nFormat/Info                              : Advanced Audio Codec\r\nFormat profile                           : LC\r\nCodec ID                                 : 40\r\nDuration                                 : 1h 14mn\r\nBit rate mode                            : Variable\r\nBit rate                                 : 112 Kbps\r\nMaximum bit rate                         : 128 Kbps\r\nChannel(s)                               : 2 channels\r\nChannel(s)_Original                      : 1 channel\r\nChannel positions                        : Front: C\r\nSampling rate                            : 44.1 KHz\r\nCompression mode                         : Lossy\r\nStream size                              : 59.9 MiB (9%)","torrent":{"xt":"urn:btih:5afe3046c219525ee4564ed5f1afd22d7ea0c455","amp;dn":"The+39+Steps%281935%29MP-4%5BDaScubaDude%5D","amp;tr":["udp%3A%2F%2Ftracker.leechers-paradise.org%3A6969","udp%3A%2F%2Fzer0day.ch%3A1337","udp%3A%2F%2Fopen.demonii.com%3A1337","udp%3A%2F%2Ftracker.coppersurfer.tk%3A6969","udp%3A%2F%2Fexodus.desync.com%3A6969"],"infoHash":"5afe3046c219525ee4564ed5f1afd22d7ea0c455","infoHashBuffer":{"type":"Buffer","data":[90,254,48,70,194,25,82,94,228,86,78,213,241,175,210,45,126,160,196,85]},"announce":[],"urlList":[]}}